Complete name                    : Due Date [2010] BRRip x264 - ZooGLE
Format                           : MPEG-4
Format profile                   : Base Media
Codec ID                         : isom
File size                        : 401 MiB
Duration                         : 1h 35mn
Overall bit rate                 : 588 Kbps

Video
ID                               : 1
Format                           : AVC
Format/Info                      : Advanced Video Codec
Format profile                   : High@L4.1
Format settings, CABAC           : Yes
Format settings, ReFrames        : 4 frames
Codec ID                         : avc1
Codec ID/Info                    : Advanced Video Coding
Duration                         : 1h 35mn
Bit rate mode                    : Variable
Bit rate                         : 488 Kbps
Maximum bit rate                 : 2 932 Kbps
Width                            : 640 pixels
Height                           : 264 pixels
Display aspect ratio             : 2.40:1
Frame rate mode                  : Constant
Frame rate                       : 23.976 fps
Color space                      : YUV
Chroma subsampling               : 4:2:0
Bit depth                        : 8 bits
Scan type                        : Progressive
Bits/(Pixel*Frame)               : 0.120
Stream size                      : 333 MiB (83%)

Audio
ID                               : 2
Format                           : AAC
Format/Info                      : Advanced Audio Codec
Format profile                   : LC
Codec ID                         : 40
Duration                         : 1h 35mn
Bit rate mode                    : Variable
Bit rate                         : 96.0 Kbps
Maximum bit rate                 : 166 Kbps
Channel(s)                       : 2 channels
Channel positions                : Front: L R
Sampling rate                    : 48.0 KHz
Compression mode                 : Lossy
Stream size                      : 65.5 MiB (16%)


IMDB              6.9/10 (18,787 votes)

Comedy 

High-strung father-to-be Peter Highman is forced to hitch a ride with aspiring actor Ethan Tremblay on a road trip in order to make it to his child's birth on time.

Director:Todd Phillips

Writers:Alan R. Cohen (screenplay), Alan Freedland (screenplay),
 
Stars:Robert Downey Jr., Zach Galifianakis and Michelle Monaghan 

Subtitles English


SCREENSHOTS
 
http://img4.imageshack.us/img4/7166/due1.png
 
http://img84.imageshack.us/img84/130/due2n.png
 
http://img59.imageshack.us/img59/6115/due3.png
 
http://img88.imageshack.us/img88/1367/due4.png

THERE IS A SAMPLE SO PLEASE CHECK THAT FIRST